<?xml version="1.0" standalone="no"?>
<!DOCTYPE svg PUBLIC "-//W3C//DTD SVG 20010904//EN"
 "http://www.w3.org/TR/2001/REC-SVG-20010904/DTD/svg10.dtd">
<svg version="1.0" xmlns="http://www.w3.org/2000/svg"
 width="3495.000000pt" height="3495.000000pt" viewBox="0 0 3495.000000 3495.000000"
 preserveAspectRatio="xMidYMid meet">
<metadata>
Created by potrace 1.11, written by Peter Selinger 2001-2013
</metadata>
<g transform="translate(0.000000,3495.000000) scale(0.100000,-0.100000)"
fill="#000000" stroke="none">
<path d="M17640 30514 c-36 -8 -94 -19 -130 -23 -36 -5 -85 -16 -110 -24 -25
-9 -63 -20 -85 -25 -78 -19 -234 -88 -293 -130 -17 -13 -48 -30 -67 -38 -37
-15 -199 -127 -210 -144 -4 -6 -30 -28 -58 -50 -63 -47 -227 -205 -290 -280
-45 -52 -49 -55 -95 -55 -26 1 -67 6 -92 12 -138 36 -200 43 -372 43 -124 0
-190 -4 -220 -14 -24 -8 -74 -19 -113 -26 -38 -7 -92 -22 -120 -35 -27 -13
-69 -26 -92 -30 -23 -4 -53 -15 -65 -24 -13 -10 -61 -39 -108 -65 -47 -26
-104 -61 -126 -77 -71 -50 -335 -319 -351 -357 -8 -20 -37 -73 -63 -117 -26
-44 -51 -95 -55 -114 -4 -19 -18 -57 -31 -85 -13 -28 -26 -71 -29 -96 -4 -25
-15 -70 -25 -100 -43 -128 -43 -476 0 -610 10 -30 21 -73 25 -95 13 -78 101
-276 170 -385 64 -101 188 -236 318 -347 31 -26 37 -38 37 -70 0 -21 -9 -55
-20 -76 -11 -21 -27 -66 -35 -101 -8 -34 -23 -85 -34 -112 -41 -104 -145 -448
-188 -619 -8 -33 -23 -87 -34 -120 -11 -33 -25 -82 -31 -110 -6 -27 -17 -70
-25 -95 -8 -25 -22 -72 -30 -105 -9 -33 -22 -80 -30 -105 -8 -25 -22 -79 -30
-120 -8 -41 -23 -104 -33 -140 -10 -36 -24 -96 -30 -135 -7 -38 -22 -101 -35
-140 -13 -38 -26 -101 -30 -140 -3 -38 -15 -90 -24 -115 -10 -25 -24 -83 -31
-130 -7 -47 -20 -112 -30 -145 -10 -33 -21 -85 -25 -115 -14 -113 -23 -156
-38 -200 -9 -25 -21 -85 -27 -135 -6 -49 -17 -110 -25 -135 -17 -53 -45 -237
-45 -292 0 -44 -27 -78 -63 -78 -12 0 -41 9 -62 21 -22 11 -70 32 -107 45 -74
26 -148 53 -303 109 -55 20 -126 45 -157 56 -32 10 -70 25 -85 32 -16 8 -52
20 -81 26 -29 6 -67 18 -85 28 -17 9 -70 26 -117 39 -47 12 -146 43 -220 68
-169 56 -477 153 -510 160 -31 6 -175 48 -300 86 -158 49 -441 123 -725 190
-93 22 -193 47 -221 55 -28 8 -62 15 -75 15 -20 0 -123 21 -339 72 -134 31
-182 40 -255 48 -44 4 -123 18 -175 30 -52 12 -133 25 -180 30 -84 8 -167 20
-285 42 -33 6 -105 15 -160 19 -55 4 -122 12 -150 17 -153 32 -726 52 -1165
40 -254 -7 -514 -27 -538 -42 -6 -4 -51 -11 -98 -17 -48 -5 -139 -23 -202 -39
-63 -17 -124 -30 -136 -30 -11 0 -34 -7 -51 -16 -16 -8 -55 -22 -85 -31 -30
-8 -75 -21 -101 -28 -58 -17 -242 -101 -288 -132 -20 -14 -65 -41 -101 -61
-36 -20 -84 -50 -107 -67 -71 -54 -238 -218 -265 -260 -14 -22 -33 -46 -42
-54 -9 -7 -16 -18 -16 -23 0 -6 -10 -24 -22 -41 -72 -101 -178 -377 -178 -466
-1 -25 -7 -64 -15 -86 -18 -50 -21 -428 -4 -472 6 -15 15 -66 19 -113 8 -84
14 -114 51 -262 18 -70 81 -263 139 -423 12 -33 42 -102 67 -154 25 -52 51
-115 59 -141 8 -26 23 -59 34 -73 11 -14 20 -31 20 -39 0 -7 10 -29 22 -48 11
-19 33 -57 48 -85 60 -112 114 -201 135 -225 13 -14 26 -36 30 -50 4 -14 23
-50 42 -80 75 -119 197 -308 234 -361 21 -31 53 -78 71 -105 18 -28 58 -81 89
-119 58 -71 99 -128 146 -200 14 -22 52 -68 84 -102 33 -34 59 -66 59 -73 0
-6 20 -32 44 -58 24 -26 50 -60 59 -77 9 -16 33 -48 54 -70 22 -22 66 -74 100
-115 34 -41 82 -95 108 -120 26 -25 58 -62 71 -82 13 -21 75 -91 136 -156 62
-65 151 -162 198 -214 116 -130 914 -927 1020 -1018 47 -40 130 -116 185 -169
55 -53 138 -129 185 -169 47 -40 146 -126 220 -192 256 -228 389 -340 463
-390 43 -29 53 -41 55 -69 3 -26 -3 -40 -24 -62 -15 -16 -33 -29 -40 -29 -7 0
-64 -44 -126 -97 -63 -54 -200 -171 -305 -260 -105 -90 -225 -193 -265 -230
-41 -38 -106 -94 -144 -125 -38 -31 -107 -96 -154 -143 -47 -47 -128 -123
-180 -167 -232 -198 -1235 -1222 -1341 -1368 -15 -20 -55 -67 -89 -104 -73
-77 -241 -282 -339 -411 -38 -49 -79 -99 -91 -110 -12 -11 -40 -45 -61 -75
-22 -30 -64 -86 -95 -125 -53 -66 -111 -149 -216 -309 -61 -92 -78 -116 -143
-206 -30 -41 -59 -91 -65 -111 -6 -20 -17 -43 -26 -50 -8 -7 -25 -31 -36 -53
-11 -23 -30 -54 -43 -71 -12 -16 -35 -55 -51 -85 -15 -30 -37 -68 -49 -85 -12
-16 -63 -115 -114 -220 -51 -104 -103 -211 -116 -236 -13 -26 -27 -64 -31 -85
-4 -22 -15 -55 -24 -74 -54 -108 -126 -334 -150 -468 -6 -34 -20 -84 -32 -110
-14 -31 -22 -77 -26 -140 -3 -68 -8 -92 -18 -92 -22 0 -20 -408 1 -416 11 -5
15 -22 15 -63 0 -36 11 -86 30 -141 17 -46 30 -91 30 -100 0 -8 14 -42 30 -75
17 -33 30 -66 30 -74 0 -8 11 -28 24 -46 13 -17 31 -47 39 -66 7 -19 35 -59
60 -89 25 -30 74 -88 108 -129 34 -41 76 -81 93 -90 16 -9 50 -34 75 -56 25
-23 66 -57 91 -76 47 -37 302 -169 326 -169 8 0 33 -9 55 -21 49 -25 197 -76
259 -89 25 -6 63 -16 85 -24 63 -22 135 -36 222 -45 44 -5 85 -11 91 -15 29
-18 295 -46 435 -46 106 0 167 -5 201 -15 71 -21 438 -21 489 0 28 11 79 15
213 15 l176 0 35 -37 c19 -21 43 -54 53 -74 10 -19 26 -42 36 -50 9 -7 28 -32
42 -54 34 -54 123 -146 191 -197 31 -23 73 -57 94 -75 20 -18 42 -33 49 -33 6
0 25 -10 42 -23 84 -63 255 -138 367 -161 41 -8 92 -22 113 -31 32 -14 78 -15
299 -12 259 3 263 4 377 35 145 41 355 143 470 230 101 76 225 195 285 274 95
124 188 298 225 423 10 33 23 74 30 90 7 17 16 63 21 104 4 40 15 83 23 96 11
16 58 36 183 78 92 30 186 59 208 63 22 3 48 11 59 16 10 6 71 25 135 43 195
56 275 81 298 93 12 7 45 17 75 23 29 6 68 19 86 30 18 10 62 26 98 34 36 8
78 22 93 30 16 8 51 19 77 25 27 5 69 19 94 29 25 11 72 28 105 39 33 11 83
27 110 37 28 9 84 29 125 45 41 15 122 45 180 66 58 21 114 44 125 51 11 7 26
13 35 13 8 0 31 9 51 19 52 28 92 30 125 7 14 -11 20 -31 25 -88 8 -103 29
-229 40 -251 11 -19 39 -193 39 -239 0 -15 8 -54 19 -85 10 -32 24 -96 31
-143 7 -47 19 -101 27 -120 8 -19 19 -64 23 -100 16 -118 31 -192 45 -221 8
-15 15 -41 15 -56 0 -38 25 -161 40 -198 6 -16 18 -68 26 -113 8 -46 23 -107
33 -135 11 -29 24 -81 31 -117 6 -36 19 -92 29 -125 10 -33 29 -100 41 -150
40 -160 128 -477 166 -595 14 -47 35 -116 46 -155 10 -38 37 -122 58 -185 22
-63 63 -186 91 -274 28 -87 60 -177 70 -200 10 -22 19 -50 19 -61 0 -11 13
-45 30 -75 16 -30 29 -65 30 -78 0 -12 8 -39 19 -60 10 -20 26 -62 36 -92 10
-30 26 -71 36 -90 11 -19 19 -41 19 -49 0 -15 42 -115 90 -216 16 -33 41 -89
56 -125 62 -149 96 -226 107 -245 34 -59 97 -190 97 -204 0 -9 20 -50 45 -91
42 -71 62 -108 133 -245 17 -33 59 -103 92 -155 33 -52 71 -115 84 -140 13
-25 43 -71 67 -102 24 -31 53 -71 64 -89 11 -18 29 -47 40 -64 57 -90 276
-344 436 -504 99 -100 184 -181 188 -181 5 0 29 -16 53 -37 23 -20 74 -56 111
-81 81 -52 338 -182 361 -182 9 0 38 -11 64 -25 31 -16 77 -28 137 -35 50 -5
108 -17 130 -25 62 -22 286 -20 361 4 33 10 86 22 118 26 32 4 92 20 132 36
40 16 78 29 86 29 7 0 42 17 78 37 87 48 155 86 211 116 140 76 532 427 594
533 13 23 36 49 50 58 15 10 34 34 43 54 10 21 37 57 61 82 40 42 96 119 129
180 7 14 21 34 31 45 10 11 40 55 67 98 27 43 61 97 76 120 27 42 41 65 113
202 21 39 49 90 62 115 14 25 35 63 47 86 12 22 32 56 44 76 12 19 22 42 22
49 0 8 13 34 30 59 16 24 32 57 35 71 4 15 13 33 21 40 7 6 21 34 29 61 8 27
23 61 33 76 11 15 23 43 27 62 4 19 17 52 31 72 13 20 26 49 30 65 4 15 15 44
25 63 33 63 89 193 89 207 0 7 14 40 30 73 17 33 30 65 30 72 0 7 12 38 26 68
15 30 32 75 40 100 7 25 29 90 49 145 20 55 44 127 54 160 10 33 25 74 34 92
9 18 23 58 31 90 8 32 21 75 30 95 9 21 21 61 27 90 6 29 20 69 29 88 10 20
22 54 26 75 4 22 17 64 30 94 13 29 28 81 34 115 5 33 21 88 35 121 13 33 25
70 25 83 0 12 10 51 21 85 12 34 27 91 34 127 7 36 22 92 34 125 37 108 70
238 87 340 9 55 22 111 29 125 15 30 45 162 45 198 0 15 6 44 14 67 18 52 46
174 46 202 0 13 6 40 14 60 8 21 21 76 31 123 62 312 76 378 91 440 8 30 14
70 14 89 0 19 6 57 14 85 28 99 45 192 50 267 8 130 50 177 131 144 22 -9 96
-37 165 -61 68 -25 129 -49 136 -54 6 -6 46 -19 88 -29 42 -11 83 -24 90 -30
6 -6 39 -17 72 -26 32 -8 82 -24 109 -35 49 -19 174 -55 305 -90 36 -9 79 -24
95 -32 17 -8 53 -20 80 -27 28 -6 70 -20 95 -30 60 -25 176 -58 281 -81 47
-10 101 -26 120 -36 19 -9 68 -23 109 -30 41 -7 98 -20 125 -28 50 -15 134
-37 315 -82 52 -14 118 -31 145 -38 28 -8 82 -22 120 -31 39 -8 93 -22 120
-30 28 -7 82 -18 120 -25 39 -6 90 -17 115 -25 25 -8 72 -19 105 -24 101 -17
177 -32 236 -47 30 -8 70 -14 88 -14 31 0 102 -15 222 -46 30 -8 85 -14 121
-14 36 0 85 -7 108 -15 23 -8 62 -15 85 -15 23 0 55 -4 71 -10 16 -5 90 -14
164 -20 74 -6 191 -17 260 -25 228 -26 527 -37 955 -32 409 4 485 9 650 42 39
8 102 16 140 19 39 2 110 16 159 30 48 14 102 26 120 26 17 0 55 11 83 25 29
13 78 29 108 34 31 6 77 22 103 36 26 13 83 39 127 56 44 16 107 47 140 68 33
21 83 50 111 64 27 14 57 33 64 43 8 9 31 27 51 39 40 26 170 136 207 175 35
37 132 186 170 260 72 140 132 330 132 416 0 30 7 54 21 73 19 27 20 38 17
248 -3 194 -5 223 -20 240 -11 12 -18 36 -18 60 0 22 -7 60 -15 83 -8 23 -15
67 -15 97 0 29 -9 79 -21 111 -11 31 -29 86 -39 122 -27 94 -58 187 -85 250
-13 30 -27 66 -31 80 -20 79 -275 595 -324 657 -11 14 -20 31 -20 38 0 7 -16
36 -35 64 -19 28 -35 53 -35 56 0 4 -11 21 -25 39 -14 18 -25 37 -25 42 0 5
-14 25 -30 44 -16 19 -30 38 -30 42 0 14 -210 328 -219 328 -5 0 -18 19 -29
42 -20 38 -20 44 -6 77 8 20 25 47 38 61 39 43 149 285 161 355 4 22 15 66 26
98 10 31 19 78 19 104 0 26 5 83 12 127 9 66 8 107 -5 221 -8 78 -25 168 -36
200 -11 33 -23 83 -27 110 -10 69 -89 230 -176 356 -24 35 -49 75 -55 89 -15
35 -107 134 -168 181 -223 172 -380 264 -490 289 -26 6 -60 17 -77 26 -38 20
-177 44 -252 44 -32 0 -76 5 -97 12 -29 8 -56 8 -107 0 -37 -6 -119 -15 -182
-21 -127 -11 -268 -51 -402 -115 -73 -34 -79 -36 -110 -22 -18 7 -72 51 -120
97 -47 46 -104 100 -126 119 -22 19 -95 87 -163 151 -68 64 -156 143 -195 175
-73 61 -199 174 -314 280 -36 33 -80 71 -99 84 -19 13 -64 50 -100 82 -36 33
-82 68 -103 79 -44 22 -78 68 -78 103 0 17 11 33 38 53 20 15 56 44 79 65 24
21 47 38 52 38 14 0 141 110 267 230 55 53 134 123 174 155 40 32 135 118 209
190 75 71 166 156 203 188 36 31 189 179 340 328 150 148 291 287 313 309 22
21 83 84 135 141 175 189 207 223 318 339 60 63 169 185 241 270 73 85 160
186 194 224 34 38 73 85 87 105 14 20 59 78 100 130 122 154 184 234 204 266
11 17 38 53 61 80 23 28 65 84 93 125 29 41 66 95 84 119 17 25 41 61 52 81
12 20 55 88 97 151 41 63 89 137 104 164 16 28 37 64 47 80 37 63 131 230 155
275 10 19 29 51 41 70 12 19 22 42 22 50 0 8 9 31 20 50 10 19 35 69 55 110
20 41 49 102 65 135 16 33 32 74 36 90 4 17 18 57 31 89 31 76 120 372 134
451 7 33 18 86 25 118 8 32 14 82 14 110 0 29 7 77 15 107 20 75 20 283 0 340
-8 23 -15 61 -15 84 0 83 -53 271 -112 396 -47 101 -37 84 -126 218 -39 59
-286 302 -308 302 -7 0 -28 13 -46 28 -61 52 -136 93 -333 182 -86 39 -294
109 -370 125 -44 9 -105 23 -135 31 -99 26 -204 44 -251 44 -26 0 -66 7 -89
15 -25 9 -79 15 -134 15 -50 1 -120 7 -156 15 -94 21 -781 21 -935 0 -60 -8
-150 -15 -200 -15 -49 0 -115 -7 -145 -15 -30 -8 -95 -15 -145 -15 -49 0 -119
-7 -155 -15 -36 -8 -82 -14 -103 -15 -20 0 -63 -6 -95 -14 -31 -8 -102 -19
-157 -25 -55 -5 -131 -17 -170 -26 -38 -9 -101 -20 -140 -25 -38 -5 -113 -19
-165 -31 -52 -11 -119 -25 -148 -29 -29 -5 -74 -13 -100 -19 -26 -6 -81 -18
-122 -26 -41 -9 -97 -22 -125 -30 -27 -8 -88 -21 -135 -30 -47 -9 -103 -21
-125 -26 -22 -6 -76 -19 -120 -30 -44 -11 -100 -26 -125 -33 -25 -8 -81 -22
-125 -31 -44 -9 -91 -22 -105 -27 -27 -11 -195 -58 -300 -84 -36 -9 -86 -25
-112 -35 -26 -10 -57 -19 -70 -19 -13 0 -64 -14 -113 -30 -50 -17 -112 -37
-140 -44 -27 -7 -72 -23 -98 -35 -27 -11 -57 -21 -67 -21 -40 0 -751 -236
-804 -266 -41 -24 -104 -34 -137 -22 -34 12 -59 69 -59 137 0 26 -7 70 -15 97
-8 27 -15 68 -15 92 0 23 -6 68 -14 100 -24 99 -45 194 -61 287 -9 50 -22 119
-30 155 -7 36 -18 92 -25 125 -6 33 -20 92 -30 130 -11 39 -28 115 -39 170
-11 55 -24 114 -30 130 -5 17 -15 62 -22 100 -6 39 -22 104 -34 146 -13 42
-28 108 -34 148 -6 40 -18 88 -25 106 -8 18 -19 59 -26 92 -6 32 -20 78 -30
103 -10 25 -25 84 -34 132 -8 48 -22 101 -31 119 -10 18 -23 67 -31 111 -7 43
-22 95 -32 115 -11 21 -23 56 -27 78 -3 21 -13 52 -21 67 -8 15 -22 63 -30
105 -9 43 -24 94 -34 113 -9 19 -23 60 -30 90 -7 30 -19 67 -26 82 -8 15 -19
50 -25 79 -6 29 -24 80 -40 113 -16 34 -29 71 -29 84 0 12 -15 62 -34 110 -18
48 -44 119 -56 157 -24 75 -65 174 -111 270 -16 33 -29 65 -29 72 0 18 -67
182 -90 218 -11 18 -20 41 -20 51 0 11 -16 50 -35 88 -19 39 -35 75 -35 81 0
16 -65 142 -83 163 -8 9 -20 37 -27 62 -7 25 -16 50 -20 55 -4 6 -44 81 -88
167 -44 86 -89 170 -101 186 -11 17 -21 36 -21 43 0 8 -15 36 -33 64 -76 113
-126 194 -141 226 -9 19 -34 59 -56 89 -22 30 -50 71 -61 90 -35 60 -91 135
-166 219 -40 45 -73 86 -73 92 0 6 -33 46 -73 88 -40 42 -87 94 -105 117 -36
47 -300 282 -340 303 -15 8 -44 29 -65 47 -20 19 -58 45 -85 57 -26 13 -79 42
-118 65 -40 23 -85 44 -100 48 -16 4 -50 17 -75 30 -60 30 -180 62 -299 79
-52 8 -119 19 -149 25 -65 12 -70 12 -151 -6z m271 -269 c40 -9 114 -36 168
-63 265 -133 520 -401 760 -802 35 -58 71 -116 81 -130 24 -36 146 -280 214
-430 31 -69 68 -147 81 -175 13 -27 27 -61 31 -75 6 -25 21 -62 83 -210 37
-88 125 -338 150 -425 10 -33 24 -73 33 -90 9 -16 19 -46 23 -65 7 -38 53
-185 90 -290 21 -61 35 -111 71 -255 8 -33 28 -100 44 -150 16 -49 32 -110 35
-135 4 -25 15 -72 26 -106 11 -33 26 -94 33 -135 8 -41 21 -93 30 -115 8 -23
22 -81 30 -130 16 -91 18 -102 62 -264 31 -119 39 -156 54 -250 6 -41 18 -100
25 -130 17 -68 65 -304 78 -385 5 -33 18 -105 29 -160 21 -104 40 -213 57
-326 6 -37 15 -79 21 -93 5 -15 14 -70 20 -124 5 -53 19 -144 30 -202 10 -57
22 -136 26 -175 4 -38 11 -81 16 -95 6 -14 14 -61 18 -105 25 -230 32 -285 44
-345 20 -93 34 -200 42 -315 7 -115 5 -119 -81 -153 -27 -11 -99 -41 -159 -66
-60 -25 -114 -46 -121 -46 -6 0 -33 -11 -61 -24 -27 -14 -98 -43 -158 -65 -59
-23 -138 -55 -175 -72 -175 -82 -307 -139 -322 -139 -7 0 -31 -11 -53 -24 -23
-13 -52 -27 -66 -31 -14 -4 -90 -36 -170 -71 -197 -87 -182 -80 -392 -183
-103 -50 -192 -91 -198 -91 -13 0 -108 -44 -345 -160 -99 -48 -211 -102 -250
-119 -38 -18 -99 -49 -135 -71 -94 -55 -103 -57 -158 -22 -57 36 -102 59 -387
197 -121 58 -274 133 -340 165 -262 128 -423 203 -485 227 -36 13 -121 52
-190 85 -133 65 -245 114 -350 154 -36 14 -110 47 -165 74 -131 63 -178 84
-245 105 -30 10 -100 39 -155 65 -55 26 -115 51 -132 55 -18 3 -42 19 -54 33
-18 23 -20 35 -15 82 4 30 10 100 15 155 5 55 14 114 21 130 14 34 28 143 36
285 3 52 13 129 24 170 22 88 40 205 40 259 0 21 7 60 15 87 8 27 20 87 25
134 20 171 28 226 39 255 13 36 41 225 41 274 0 20 8 59 19 86 10 28 24 97 30
155 7 58 18 121 25 140 7 19 21 80 30 135 9 55 21 118 26 140 6 22 19 90 30
150 12 61 27 131 35 156 8 25 20 81 26 125 6 43 18 99 26 124 9 25 26 92 39
150 12 58 28 128 34 155 6 28 18 78 25 113 19 83 43 131 69 137 11 3 91 7 176
10 251 7 377 38 603 149 292 143 435 276 618 571 31 49 59 116 111 260 34 97
40 126 47 241 5 72 14 141 21 154 7 14 10 41 6 74 -4 28 -10 98 -15 156 -12
134 -26 211 -44 247 -8 15 -22 56 -31 90 -14 58 -37 106 -111 238 -49 87 -104
153 -231 281 -67 66 -125 130 -128 142 -8 23 13 70 40 93 9 7 43 47 75 89 125
163 258 295 384 381 133 90 220 135 305 154 78 18 274 18 361 0z m-9546 -5833
c61 -7 148 -19 195 -27 47 -8 128 -17 180 -20 52 -2 129 -14 170 -25 41 -11
120 -25 175 -30 55 -6 125 -19 155 -29 30 -10 80 -22 110 -26 30 -4 110 -20
177 -36 67 -16 132 -29 145 -29 13 0 52 -9 88 -21 36 -11 102 -26 147 -34 45
-8 94 -20 110 -28 15 -8 68 -22 116 -31 49 -10 110 -25 135 -35 26 -10 65 -22
87 -25 21 -4 52 -14 68 -23 16 -8 70 -23 120 -33 51 -10 112 -27 137 -39 25
-11 57 -21 72 -21 15 0 56 -11 90 -24 35 -13 95 -33 133 -44 110 -31 228 -69
520 -168 72 -25 157 -53 190 -63 89 -28 146 -49 285 -101 69 -26 145 -54 170
-63 25 -8 90 -31 145 -52 55 -21 134 -50 175 -65 170 -63 243 -90 302 -116 69
-28 212 -84 297 -115 30 -10 59 -23 65 -28 6 -5 36 -17 66 -26 30 -9 82 -30
115 -45 125 -59 174 -80 186 -80 12 0 82 -29 209 -86 42 -19 82 -34 89 -34 25
0 163 -74 176 -94 25 -41 27 -82 6 -151 -12 -37 -21 -90 -21 -119 0 -28 -5
-78 -11 -111 -6 -33 -15 -98 -19 -145 -4 -47 -13 -103 -19 -125 -6 -22 -11
-78 -11 -125 0 -47 -7 -110 -15 -140 -8 -30 -15 -98 -15 -152 0 -53 -5 -109
-12 -125 -6 -15 -14 -77 -18 -138 -20 -302 -32 -436 -46 -500 -8 -42 -14 -126
-14 -210 0 -92 -5 -159 -15 -195 -9 -33 -15 -101 -15 -170 -1 -154 -23 -353
-44 -385 -9 -14 -35 -34 -59 -46 -23 -12 -83 -49 -134 -83 -50 -34 -134 -88
-185 -120 -134 -86 -196 -127 -258 -171 -30 -21 -152 -104 -270 -183 -118 -79
-233 -159 -255 -177 -22 -17 -51 -38 -65 -45 -14 -7 -50 -32 -80 -54 -30 -23
-69 -50 -86 -61 -51 -33 -113 -78 -152 -111 -21 -17 -57 -44 -82 -59 -48 -30
-102 -69 -285 -205 -63 -47 -167 -123 -231 -170 -174 -127 -304 -228 -351
-271 -24 -22 -50 -39 -58 -39 -19 0 -92 48 -120 80 -11 12 -39 36 -63 52 -24
16 -102 77 -174 134 -72 58 -142 112 -157 121 -14 9 -42 31 -61 49 -19 17 -86
70 -147 117 -62 47 -127 97 -145 111 -18 15 -74 59 -125 99 -50 40 -144 118
-210 174 -65 56 -190 161 -278 234 -250 207 -433 368 -890 782 -345 313 -917
895 -1140 1160 -16 20 -82 96 -145 169 -131 151 -253 301 -325 402 -28 37 -68
91 -91 120 -67 85 -187 253 -224 316 -19 32 -68 113 -109 181 -41 68 -84 140
-97 159 -12 19 -25 46 -29 60 -4 14 -18 45 -31 70 -22 43 -42 90 -112 260 -17
41 -34 93 -37 115 -4 22 -13 58 -22 80 -18 47 -39 177 -48 295 -17 209 67 436
222 606 96 106 283 212 453 259 52 15 106 31 120 37 33 14 149 35 290 54 63 8
117 17 119 20 10 10 691 -2 796 -14z m19025 -118 c80 -8 180 -22 223 -30 42
-8 95 -14 115 -14 21 0 66 -11 99 -25 34 -13 81 -27 105 -31 80 -12 283 -114
378 -190 138 -110 222 -224 278 -379 24 -65 30 -103 35 -201 8 -139 -6 -311
-27 -352 -8 -15 -17 -50 -21 -77 -4 -28 -20 -79 -35 -115 -15 -36 -31 -78 -34
-94 -7 -28 -96 -223 -133 -291 -9 -16 -28 -52 -43 -80 -56 -104 -125 -221
-152 -259 -15 -21 -28 -42 -28 -46 0 -7 -19 -36 -109 -166 -74 -107 -240 -325
-336 -442 -55 -67 -113 -139 -128 -160 -16 -20 -57 -68 -91 -107 -35 -38 -76
-86 -92 -105 -98 -121 -557 -612 -696 -745 -52 -49 -163 -155 -248 -235 -85
-79 -218 -206 -295 -281 -77 -75 -148 -140 -157 -145 -9 -5 -98 -81 -199 -169
-100 -88 -201 -176 -224 -195 -23 -19 -93 -80 -155 -135 -62 -54 -163 -140
-225 -190 -106 -86 -298 -244 -434 -357 -106 -88 -244 -197 -286 -225 -22 -14
-67 -49 -100 -78 -33 -29 -98 -81 -145 -117 -47 -35 -100 -79 -119 -96 -62
-59 -97 -52 -206 42 -33 29 -93 74 -133 101 -40 26 -76 53 -80 60 -4 6 -43 36
-87 65 -44 29 -98 70 -120 90 -22 21 -70 58 -106 81 -36 24 -111 78 -166 119
-138 103 -304 225 -388 283 -38 26 -97 68 -130 92 -90 67 -189 135 -410 282
-110 73 -227 153 -260 177 -33 23 -91 64 -130 89 -128 85 -117 66 -127 213 -5
71 -12 217 -17 324 -5 123 -12 206 -21 225 -8 19 -14 84 -17 175 -2 80 -8 178
-13 218 -6 40 -10 118 -10 171 0 68 -5 112 -17 142 -11 30 -19 95 -24 204 -9
196 -26 365 -40 402 -6 16 -12 71 -13 123 -3 89 -13 177 -38 330 -6 36 -14
110 -18 165 -7 93 -17 171 -41 306 -19 113 -10 135 63 158 21 7 40 17 43 21 3
5 34 18 68 29 34 10 103 38 152 61 89 42 153 67 289 116 38 14 75 29 81 34 12
10 116 50 220 85 39 13 113 41 165 63 52 22 115 45 140 52 24 7 65 22 90 35
25 12 62 25 83 29 21 4 64 17 95 30 31 13 80 31 107 40 251 89 302 106 315
106 9 0 33 9 54 20 43 21 410 144 466 155 19 4 47 14 63 22 15 7 53 18 85 24
31 6 71 19 88 30 17 10 73 27 125 38 52 10 139 33 194 51 55 18 136 41 180 52
44 11 103 28 130 38 28 10 84 23 125 30 41 7 93 21 115 30 22 10 74 23 115 30
41 6 104 20 140 30 36 11 110 27 165 36 55 9 120 22 145 29 25 8 65 17 90 20
25 4 92 17 150 30 58 13 132 26 165 29 33 4 119 17 190 31 127 23 229 35 490
56 72 6 150 14 175 18 79 15 379 12 530 -5z m-6845 -1974 c16 -17 19 -47 25
-204 4 -101 10 -188 13 -193 3 -5 7 -61 8 -124 1 -64 8 -136 16 -164 14 -47
18 -110 42 -596 5 -114 17 -237 25 -273 19 -82 22 -286 4 -304 -7 -7 -17 -12
-24 -12 -25 0 -122 53 -194 105 -41 30 -78 55 -81 55 -4 0 -36 18 -70 40 -35
22 -81 49 -103 61 -21 11 -57 34 -79 50 -22 16 -44 29 -49 29 -12 0 -191 104
-233 135 -16 13 -40 26 -53 30 -23 7 -50 22 -145 84 -29 18 -84 50 -122 71
-39 21 -104 58 -145 83 -115 68 -282 162 -433 241 -109 57 -127 71 -127 102 0
28 21 42 110 79 70 28 183 79 215 97 56 32 316 158 325 158 5 0 81 35 167 79
87 43 168 82 180 85 23 7 375 173 428 202 17 9 53 24 80 34 28 10 70 29 95 44
54 31 100 33 125 6z m-5514 -79 c25 -19 180 -91 196 -91 6 0 22 -9 36 -20 14
-11 45 -27 69 -36 44 -15 201 -90 413 -197 66 -33 131 -65 144 -71 14 -6 108
-52 210 -102 102 -51 197 -95 211 -99 123 -36 155 -122 58 -154 -52 -17 -208
-101 -423 -226 -49 -29 -128 -74 -175 -100 -47 -25 -130 -73 -185 -106 -55
-32 -122 -70 -150 -84 -71 -35 -157 -83 -175 -99 -8 -7 -46 -30 -85 -51 -38
-21 -77 -44 -85 -51 -9 -7 -58 -39 -110 -70 -158 -96 -204 -84 -181 45 21 123
31 246 31 381 0 83 6 158 15 195 8 33 15 101 15 150 0 50 7 131 15 180 8 50
15 147 15 217 0 70 5 149 10 175 6 27 12 84 13 127 2 64 6 81 22 92 26 19 68
17 96 -5z m2699 -1358 c41 -25 131 -75 200 -111 156 -82 174 -92 285 -157 50
-29 139 -79 199 -110 60 -31 122 -65 137 -76 15 -10 30 -19 35 -19 4 0 28 -13
53 -28 87 -54 236 -140 313 -180 42 -23 94 -52 115 -65 21 -13 106 -64 188
-112 83 -49 188 -112 235 -140 115 -70 268 -159 308 -179 18 -9 66 -38 106
-64 79 -50 104 -66 207 -123 37 -20 89 -52 117 -71 53 -35 160 -102 352 -219
177 -109 163 -85 174 -312 10 -236 12 -2662 2 -2877 -4 -85 -12 -167 -18 -183
-10 -26 -81 -87 -102 -87 -5 0 -32 -18 -60 -39 -28 -22 -85 -58 -126 -82 -41
-23 -97 -56 -125 -74 -27 -18 -105 -65 -172 -104 -68 -38 -149 -88 -180 -110
-32 -22 -85 -54 -118 -72 -33 -17 -73 -41 -90 -54 -16 -12 -50 -32 -75 -45
-24 -12 -56 -30 -70 -40 -41 -27 -178 -109 -285 -170 -207 -118 -292 -168
-363 -213 -40 -26 -75 -47 -78 -47 -11 0 -335 -180 -368 -204 -33 -24 -103
-64 -256 -143 -98 -51 -125 -67 -220 -123 -30 -17 -75 -42 -100 -54 -64 -32
-242 -136 -262 -153 -9 -8 -35 -17 -57 -20 -36 -5 -49 0 -128 50 -48 30 -153
89 -233 130 -80 41 -239 127 -355 192 -115 64 -232 130 -260 145 -135 74 -279
156 -358 205 -48 29 -136 79 -195 111 -59 31 -157 86 -219 123 -62 36 -137 80
-167 96 -31 17 -99 58 -153 91 -54 34 -140 85 -192 114 -52 29 -124 71 -160
95 -36 23 -93 57 -126 76 -33 18 -92 54 -131 80 -39 26 -95 59 -126 72 -30 13
-64 37 -76 52 -21 26 -22 36 -17 145 3 79 0 144 -10 200 -20 115 -21 2805 -1
2915 7 39 12 128 11 200 -1 86 2 141 11 162 12 32 32 46 249 173 93 54 151 90
250 152 75 47 124 75 180 103 28 13 93 52 145 85 52 33 115 71 140 85 25 14
74 44 110 66 36 22 84 49 107 59 23 10 72 39 110 63 37 25 111 67 163 94 52
28 138 77 190 110 52 33 163 95 245 138 83 43 182 96 220 118 39 23 88 51 110
62 148 79 225 120 338 179 71 37 163 89 205 116 100 65 124 65 222 3z m-4096
-2316 c16 -12 17 -72 17 -1086 -1 -590 -4 -1077 -7 -1082 -12 -20 -64 -8 -110
26 -27 19 -69 47 -93 62 -24 15 -73 50 -110 76 -36 27 -84 58 -106 69 -22 11
-51 31 -65 43 -14 13 -52 41 -86 62 -33 21 -101 65 -150 99 -49 34 -170 116
-269 183 -99 67 -238 162 -310 212 -71 50 -173 119 -226 154 -53 35 -98 72
-101 82 -9 34 10 62 59 87 26 14 82 51 123 81 41 30 101 72 133 92 33 21 87
58 122 83 141 99 205 144 326 223 69 46 145 98 170 116 63 46 409 274 440 289
15 8 50 32 80 55 52 39 128 87 140 87 3 0 13 -6 23 -13z m8286 -197 c21 -11
41 -24 44 -29 3 -5 77 -56 163 -115 87 -59 231 -157 321 -219 89 -62 189 -130
222 -152 64 -42 106 -73 243 -172 47 -34 118 -81 157 -105 40 -23 77 -53 83
-65 15 -33 0 -72 -34 -91 -81 -44 -176 -108 -323 -216 -48 -36 -105 -76 -125
-88 -20 -12 -50 -33 -67 -47 -17 -14 -44 -34 -60 -43 -16 -9 -101 -66 -189
-127 -88 -61 -194 -134 -235 -163 -41 -28 -101 -73 -133 -100 -61 -50 -88 -62
-128 -56 l-24 3 -2 515 c-1 283 -2 683 -3 888 -1 436 -3 429 90 382z m-10691
-1567 c36 -32 81 -69 102 -83 20 -14 82 -59 137 -100 55 -41 126 -93 158 -115
31 -22 74 -54 93 -70 43 -37 97 -77 171 -128 106 -73 155 -109 180 -131 14
-13 57 -44 95 -69 39 -25 96 -68 129 -96 32 -27 85 -63 117 -81 32 -17 61 -35
64 -40 3 -5 38 -31 78 -56 40 -26 97 -68 127 -94 30 -26 69 -54 85 -63 17 -8
60 -37 97 -64 37 -26 87 -61 110 -76 24 -15 64 -42 90 -60 25 -18 66 -43 89
-57 23 -14 56 -36 72 -50 17 -14 52 -36 79 -50 27 -14 68 -40 91 -57 53 -41
230 -159 268 -178 16 -9 34 -25 41 -38 14 -26 25 -152 37 -427 5 -107 13 -211
20 -230 6 -19 11 -93 11 -165 0 -72 5 -146 11 -165 10 -32 27 -207 48 -510 5
-69 14 -138 20 -153 6 -16 11 -68 11 -117 0 -49 5 -101 11 -117 6 -15 14 -85
19 -154 4 -69 13 -136 19 -147 6 -11 11 -51 11 -89 0 -37 7 -104 15 -148 8
-44 15 -107 15 -140 1 -33 7 -78 15 -100 17 -47 19 -108 5 -135 -11 -21 -165
-98 -315 -158 -87 -35 -189 -79 -220 -96 -16 -9 -38 -16 -47 -16 -10 0 -47
-13 -81 -30 -35 -16 -67 -30 -71 -30 -4 0 -35 -13 -69 -28 -113 -52 -181 -81
-222 -93 -22 -7 -49 -18 -60 -25 -11 -7 -52 -24 -90 -37 -39 -14 -99 -36 -135
-50 -36 -14 -103 -39 -149 -56 -46 -17 -88 -34 -95 -39 -6 -5 -33 -17 -61 -25
-92 -29 -220 -75 -250 -91 -16 -9 -37 -16 -46 -16 -9 0 -36 -11 -61 -24 -24
-13 -68 -29 -97 -35 -30 -6 -66 -20 -81 -31 -37 -26 -82 -35 -108 -21 -12 6
-38 41 -58 78 -85 151 -240 310 -413 424 -107 71 -287 159 -363 179 -23 6 -68
19 -98 30 -53 19 -374 55 -402 45 -7 -2 -60 -9 -118 -14 -58 -6 -125 -17 -150
-26 -25 -9 -71 -21 -103 -26 -55 -9 -94 -25 -210 -84 -26 -14 -52 -25 -59 -25
-13 0 -150 -89 -213 -139 -73 -58 -235 -225 -272 -281 -20 -30 -44 -67 -54
-81 -46 -68 -125 -233 -151 -314 -37 -116 -61 -265 -62 -385 -1 -113 -15 -144
-73 -159 -21 -6 -64 -17 -96 -26 -32 -9 -104 -20 -160 -25 -56 -6 -169 -20
-252 -31 -130 -19 -207 -23 -584 -26 -453 -5 -515 -1 -716 44 -573 127 -885
462 -862 928 7 141 32 291 57 347 11 24 20 53 20 66 0 12 14 49 30 82 17 33
30 66 30 74 0 8 13 38 28 68 16 30 32 66 36 81 3 14 37 80 74 146 37 66 78
142 92 168 39 74 207 329 301 456 25 34 71 97 103 139 31 43 96 124 144 180
48 57 114 137 146 178 33 41 99 120 148 175 48 55 113 130 145 167 121 139
447 479 589 615 82 78 235 224 339 324 105 100 234 220 287 266 54 46 131 114
172 151 132 121 298 267 326 287 15 11 81 67 147 125 136 120 273 236 433 365
61 50 155 126 208 170 54 44 133 107 176 140 44 33 102 78 130 101 28 22 105
81 171 132 66 51 154 119 195 152 41 33 98 75 125 94 28 19 88 66 135 105 56
47 93 71 110 71 16 0 47 -20 89 -57z m12881 7 c36 -27 97 -75 135 -105 39 -31
86 -67 106 -80 20 -13 98 -73 172 -132 75 -59 157 -124 183 -143 25 -19 51
-39 58 -45 84 -72 138 -116 171 -140 37 -28 151 -121 290 -239 33 -28 72 -60
87 -71 14 -11 54 -42 87 -70 33 -27 74 -60 91 -73 36 -28 39 -61 11 -124 -27
-60 -69 -202 -81 -272 -5 -33 -10 -103 -10 -155 0 -53 -4 -112 -9 -131 -5 -22
-3 -58 5 -95 7 -33 13 -87 13 -120 1 -60 7 -87 54 -240 33 -106 58 -161 130
-280 81 -133 130 -196 218 -280 141 -134 324 -254 466 -303 32 -11 81 -29 108
-40 102 -41 347 -68 540 -59 139 7 318 38 375 67 19 9 48 20 64 24 17 4 42 16
57 27 44 31 86 25 128 -19 56 -59 415 -507 499 -622 92 -128 160 -225 186
-268 16 -26 45 -72 64 -102 89 -138 129 -207 209 -365 54 -105 103 -214 103
-229 0 -6 13 -38 28 -71 74 -156 127 -436 112 -595 -11 -125 -26 -188 -62
-267 -30 -67 -43 -88 -111 -178 -43 -56 -167 -169 -212 -192 -16 -9 -43 -26
-60 -39 -48 -36 -349 -143 -405 -144 -14 0 -68 -12 -120 -27 -94 -26 -99 -26
-517 -30 -290 -3 -443 -1 -490 7 -119 20 -275 40 -383 49 -58 5 -141 19 -185
31 -44 11 -107 23 -140 26 -33 3 -107 16 -165 29 -58 13 -127 27 -155 30 -27
4 -70 13 -95 20 -25 8 -92 23 -150 34 -58 11 -127 27 -155 35 -27 8 -79 20
-115 26 -36 7 -97 23 -137 36 -39 13 -81 24 -92 24 -11 0 -44 9 -73 20 -29 12
-91 28 -138 36 -47 9 -90 20 -97 26 -7 5 -63 23 -125 39 -62 15 -142 35 -178
44 -36 9 -90 28 -121 41 -31 13 -62 24 -69 24 -7 0 -78 22 -159 49 -80 27
-265 88 -411 136 -311 102 -674 229 -710 249 -14 8 -54 22 -89 31 -36 9 -85
27 -110 40 -25 12 -62 26 -81 30 -19 4 -51 15 -70 25 -19 9 -57 22 -83 29 -27
6 -59 18 -71 26 -12 8 -47 23 -77 34 -78 27 -268 105 -325 134 -27 13 -62 27
-79 31 -16 4 -86 31 -155 60 -69 29 -147 61 -175 71 -119 44 -135 69 -116 178
35 192 41 235 41 289 0 33 7 96 15 141 24 137 47 352 40 379 -4 14 1 55 10 90
22 82 33 190 43 418 6 127 13 193 22 210 16 28 27 168 38 490 5 159 11 221 22
240 10 18 17 80 22 225 5 110 11 259 16 331 8 150 9 153 101 212 30 19 75 50
99 69 25 19 62 43 82 53 20 10 55 34 78 52 40 33 115 84 282 195 47 30 97 66
111 80 14 13 48 38 77 56 61 38 298 208 400 286 41 31 104 76 141 101 71 47
235 169 336 248 33 26 94 71 135 101 95 68 271 212 329 268 60 59 87 58 171
-7z m-3434 -2317 c15 -15 16 -37 12 -197 -3 -110 -10 -193 -18 -211 -7 -17
-16 -112 -21 -215 -21 -451 -28 -547 -39 -580 -12 -38 -28 -241 -38 -501 -5
-118 -11 -171 -21 -183 -22 -26 -72 -19 -137 20 -32 20 -83 45 -112 55 -29 10
-65 25 -80 33 -15 8 -106 51 -202 96 -334 157 -674 319 -735 351 -183 94 -302
152 -366 179 -131 53 -139 84 -39 142 200 116 283 162 410 230 36 19 110 61
165 93 55 32 136 79 180 104 45 25 94 56 109 69 16 12 34 22 40 22 6 1 43 21
81 45 39 25 77 48 85 51 8 4 68 39 132 78 65 39 145 87 178 106 160 94 228
136 255 158 27 23 121 72 137 72 4 0 14 -8 24 -17z m-5800 -168 c20 -8 52 -28
73 -44 20 -16 55 -37 76 -47 22 -10 49 -26 60 -35 11 -9 72 -45 135 -79 63
-34 133 -75 156 -90 23 -15 57 -33 77 -39 20 -7 39 -16 42 -21 3 -5 43 -29 90
-55 46 -25 87 -50 90 -56 4 -5 28 -20 53 -33 137 -69 274 -143 332 -179 57
-35 140 -80 302 -163 86 -44 84 -96 -6 -138 -101 -47 -222 -106 -246 -120 -44
-26 -173 -86 -185 -86 -6 0 -49 -22 -95 -48 -47 -27 -103 -55 -125 -62 -22 -7
-51 -20 -65 -30 -14 -9 -72 -38 -130 -65 -58 -26 -190 -90 -295 -142 -214
-107 -237 -115 -269 -103 -19 7 -24 20 -35 107 -7 54 -17 172 -21 263 -5 91
-13 197 -19 235 -6 39 -11 108 -11 155 0 47 -7 112 -15 145 -9 38 -15 113 -15
206 0 83 -6 181 -14 225 -8 44 -17 124 -21 180 -5 86 -4 104 10 118 20 20 26
20 71 1z m2990 -1630 c137 -69 274 -134 304 -146 30 -11 62 -27 70 -34 8 -7
64 -34 123 -60 60 -25 125 -56 145 -69 39 -24 284 -136 299 -136 4 0 58 -25
118 -56 61 -30 126 -61 145 -69 61 -23 172 -71 250 -108 41 -20 100 -45 130
-57 30 -12 60 -26 66 -31 6 -5 42 -20 80 -33 38 -14 94 -35 124 -49 93 -41
174 -78 201 -92 14 -8 48 -21 75 -30 27 -10 99 -39 159 -65 61 -27 128 -53
150 -59 58 -16 104 -47 111 -76 4 -15 1 -79 -6 -143 -7 -64 -16 -155 -20 -202
-4 -47 -12 -96 -17 -110 -6 -14 -13 -56 -17 -95 -10 -110 -26 -224 -41 -300
-14 -70 -27 -156 -45 -290 -5 -38 -14 -86 -20 -105 -5 -19 -10 -55 -10 -80 0
-25 -7 -76 -16 -115 -8 -38 -19 -95 -24 -125 -15 -99 -30 -184 -45 -250 -9
-36 -24 -117 -34 -180 -26 -156 -58 -321 -78 -400 -20 -83 -30 -136 -42 -232
-6 -42 -17 -90 -25 -107 -9 -16 -23 -73 -31 -125 -9 -53 -20 -109 -26 -124 -6
-15 -21 -72 -34 -127 -41 -172 -55 -228 -77 -305 -12 -41 -25 -97 -31 -125 -5
-27 -22 -95 -37 -150 -15 -55 -36 -136 -47 -180 -11 -44 -25 -93 -31 -110 -22
-61 -54 -162 -72 -230 -18 -68 -49 -161 -95 -295 -13 -36 -40 -117 -60 -180
-20 -63 -40 -119 -45 -125 -4 -5 -13 -28 -20 -50 -18 -60 -80 -215 -101 -255
-11 -19 -19 -41 -19 -48 0 -7 -13 -38 -29 -70 -15 -31 -32 -68 -35 -82 -17
-58 -233 -493 -291 -585 -24 -38 -63 -104 -86 -145 -23 -41 -54 -89 -68 -106
-14 -17 -59 -76 -98 -131 -195 -268 -475 -501 -662 -547 -31 -8 -74 -21 -96
-30 -61 -23 -226 -21 -319 4 -67 19 -169 65 -270 123 -62 36 -236 187 -325
284 -147 159 -328 423 -459 668 -45 83 -162 325 -162 334 0 5 -22 56 -50 113
-27 57 -61 135 -75 173 -34 89 -74 195 -120 315 -20 52 -58 158 -84 235 -27
77 -56 160 -65 185 -8 25 -32 99 -51 165 -20 66 -43 136 -51 155 -8 19 -26 82
-40 140 -13 58 -42 164 -64 235 -21 72 -41 146 -45 165 -4 19 -13 58 -21 85
-28 98 -124 502 -143 604 -12 58 -27 125 -35 150 -8 25 -22 89 -31 141 -9 52
-23 120 -31 150 -8 30 -21 96 -29 145 -8 50 -22 110 -30 135 -8 25 -21 104
-30 175 -9 72 -22 150 -29 175 -8 25 -19 86 -26 135 -6 50 -18 119 -27 155
-15 64 -19 89 -42 280 -6 52 -16 106 -22 120 -10 23 -17 70 -39 270 -4 41 -15
95 -24 119 -9 24 -16 68 -16 98 0 66 -27 284 -41 333 -6 19 -15 80 -20 135 -5
55 -11 127 -15 161 -5 54 -4 63 17 87 23 25 99 61 234 111 33 12 101 42 150
67 50 24 110 51 135 60 103 38 184 73 370 162 74 36 146 68 159 72 13 4 96 42
185 85 88 42 172 80 186 85 14 4 68 29 120 56 52 27 235 116 405 199 171 83
317 155 326 159 9 5 59 32 111 60 53 27 111 59 130 71 18 11 34 20 34 20 1 0
113 -56 250 -125z"/>
<path d="M17385 19908 c-92 -6 -149 -16 -195 -32 -36 -13 -83 -27 -105 -31
-22 -4 -66 -18 -97 -31 -32 -13 -70 -24 -86 -24 -15 0 -49 -13 -75 -30 -26
-16 -54 -30 -63 -30 -8 0 -51 -25 -96 -56 -45 -31 -92 -60 -104 -64 -32 -13
-193 -151 -238 -205 -89 -108 -162 -234 -171 -298 -4 -26 -15 -57 -25 -70 -9
-12 -21 -33 -25 -47 -4 -14 -21 -51 -36 -82 -16 -32 -29 -63 -29 -70 0 -7 -12
-36 -27 -63 l-28 -50 -5 -330 -5 -330 -38 -65 c-21 -36 -44 -71 -50 -79 -12
-14 -31 -49 -81 -146 -15 -27 -41 -70 -60 -95 -19 -25 -55 -79 -80 -121 -25
-41 -54 -83 -65 -93 -10 -10 -25 -32 -32 -49 -15 -37 -75 -118 -95 -130 -21
-12 -18 -19 31 -73 45 -49 98 -84 187 -125 66 -30 82 -71 72 -193 -4 -50 -13
-109 -21 -130 -17 -49 -10 -72 28 -92 18 -9 37 -31 46 -52 14 -33 13 -41 -3
-88 -22 -64 -13 -90 44 -131 21 -15 56 -48 77 -72 l40 -44 6 -147 c5 -125 9
-153 27 -182 34 -54 120 -123 187 -148 88 -33 356 -20 549 27 123 30 147 25
176 -32 21 -45 24 -151 6 -240 -9 -42 -16 -103 -16 -135 0 -50 5 -65 36 -111
20 -30 44 -63 54 -74 23 -28 70 -171 72 -224 1 -25 7 -45 15 -48 7 -3 13 -11
13 -19 0 -12 148 -14 970 -14 830 0 970 2 970 14 0 8 5 16 12 18 10 4 9 15 -1
54 -7 27 -17 78 -22 113 -6 35 -18 80 -28 100 -10 20 -24 75 -30 124 -7 48
-20 116 -31 150 -10 34 -22 85 -26 112 -3 28 -17 82 -30 120 -12 39 -28 104
-34 145 -6 41 -19 104 -29 140 -20 70 -41 292 -41 428 0 151 26 255 91 362 50
82 81 124 186 248 48 56 87 112 93 133 5 20 19 44 30 54 11 10 20 23 20 28 0
6 12 31 27 56 41 69 74 149 89 219 8 35 23 80 33 101 11 20 24 63 30 94 6 32
20 87 30 123 11 35 23 95 26 132 4 37 15 126 26 197 21 147 30 319 18 352 -9
25 -33 171 -44 268 -4 33 -17 83 -31 112 -13 28 -24 58 -24 66 0 8 -13 38 -29
68 -15 30 -31 66 -34 80 -22 91 -298 409 -392 453 -22 11 -51 28 -65 38 -52
39 -130 88 -141 88 -6 0 -35 13 -63 29 -28 16 -72 31 -99 35 -26 3 -64 14 -85
25 -21 10 -59 22 -86 26 -27 4 -76 16 -110 27 -124 39 -582 58 -891 36z m590
-627 c17 -54 -41 -186 -110 -250 -53 -48 -92 -68 -150 -72 l-40 -4 3 50 c3 48
45 152 74 185 35 39 70 63 124 85 71 30 91 31 99 6z m98 -316 c68 -18 97 -34
154 -88 l41 -40 -53 -51 c-65 -64 -96 -123 -102 -197 -7 -76 10 -142 54 -206
30 -45 99 -103 136 -116 17 -5 -75 -182 -132 -252 -100 -126 -174 -148 -335
-101 -110 32 -145 32 -243 1 -43 -14 -100 -25 -126 -25 -89 0 -169 60 -254
191 -98 153 -143 293 -143 448 0 156 38 260 125 347 96 96 205 115 395 68 114
-28 121 -28 275 15 86 24 134 26 208 6z"/>
</g>
</svg>
